<?xml version="1.0" standalone="no"?>
<!DOCTYPE svg PUBLIC "-//W3C//DTD SVG 20010904//EN"
 "http://www.w3.org/TR/2001/REC-SVG-20010904/DTD/svg10.dtd">
<svg version="1.0" xmlns="http://www.w3.org/2000/svg"
 width="1024.000000pt" height="1024.000000pt" viewBox="0 0 1024.000000 1024.000000"
 preserveAspectRatio="xMidYMid meet">

<g transform="translate(0.000000,1024.000000) scale(0.100000,-0.100000)"
fill="#000000" stroke="none">
<path d="M4810 9942 c-270 -22 -642 -77 -762 -113 -54 -15 -68 -24 -68 -39 0
-19 5 -19 104 -13 l104 6 15 -69 c9 -38 32 -154 52 -259 20 -104 43 -200 51
-212 13 -21 22 -23 104 -23 l90 0 1 -197 c0 -109 3 -205 7 -214 7 -15 45 -52
280 -268 l102 -94 0 -469 0 -468 -245 0 -245 0 0 443 0 442 -113 118 -112 117
-101 2 -102 1 -11 73 c-36 219 -251 368 -466 324 -175 -35 -302 -171 -326
-349 -21 -152 47 -302 176 -387 89 -59 187 -76 310 -53 72 13 99 26 170 84 30
25 62 45 71 45 9 0 38 -21 64 -47 26 -27 60 -58 74 -71 l27 -23 -3 -354 c-2
-194 -6 -357 -11 -361 -4 -4 -60 44 -125 107 -64 63 -214 209 -333 325 l-216
211 -84 6 c-46 3 -289 2 -539 -1 l-455 -7 -7 -147 c-3 -82 -3 -160 1 -175 l7
-28 488 -3 488 -2 131 -122 c73 -67 181 -170 240 -229 l109 -107 -99 -112
c-108 -123 -127 -152 -118 -179 3 -10 3 -26 -1 -35 -5 -13 -39 16 -154 128
-198 193 -303 260 -520 333 -76 25 -99 28 -215 28 -152 0 -223 -18 -347 -89
-137 -78 -229 -186 -304 -357 l-38 -84 0 -150 c0 -138 2 -157 27 -231 37 -111
111 -242 180 -319 31 -35 57 -66 57 -69 0 -3 -103 -6 -229 -6 l-230 0 -133
-64 c-245 -119 -559 -248 -586 -241 -14 3 -55 33 -92 65 -226 202 -510 196
-702 -15 -37 -41 -85 -140 -99 -205 -47 -218 96 -454 321 -530 99 -33 286 -21
339 22 9 8 29 20 44 28 49 24 148 139 179 207 l28 63 119 0 c135 0 115 -9 301
139 52 42 113 90 135 106 22 16 46 35 54 43 11 10 113 13 543 11 291 0 532 2
536 6 11 11 14 318 4 346 -10 25 -12 26 -143 32 -73 4 -137 11 -143 17 -17 17
-11 177 9 245 50 173 173 328 317 397 79 38 197 68 265 68 21 0 56 -9 78 -19
51 -23 248 -213 243 -234 -1 -8 -29 -46 -60 -84 -139 -164 -191 -231 -216
-273 l-27 -45 -3 -921 c-1 -536 1 -932 7 -945 9 -24 52 -48 451 -251 l125 -64
3 -304 2 -303 42 -46 c23 -25 78 -84 122 -131 45 -47 111 -118 149 -158 37
-40 74 -72 82 -72 8 0 59 29 112 64 105 68 303 193 380 240 168 101 443 293
443 308 0 23 -65 69 -300 214 -222 137 -334 202 -402 235 l-48 23 0 658 0 658
-38 19 c-21 11 -119 45 -217 76 -247 78 -333 112 -340 136 -4 10 -10 19 -14
19 -4 0 -31 29 -60 65 -67 84 -250 291 -329 374 -34 35 -62 67 -62 71 0 4 17
10 38 13 53 8 1286 -3 1294 -11 4 -4 8 -415 9 -912 0 -498 3 -920 6 -939 l6
-34 496 8 c273 4 516 10 541 14 36 5 45 11 51 31 4 14 7 430 8 926 l1 900 675
1 c371 0 675 -2 675 -3 0 -2 -29 -32 -63 -66 -35 -35 -102 -108 -148 -163 -46
-55 -127 -148 -179 -207 l-95 -108 -145 -46 c-80 -25 -203 -64 -275 -87 -71
-22 -133 -46 -137 -51 -15 -22 -18 -152 -21 -736 l-2 -605 -130 -72 c-71 -40
-137 -76 -145 -80 -8 -4 -62 -36 -120 -71 -199 -122 -350 -226 -350 -242 0 -5
33 -31 73 -58 39 -27 113 -75 162 -108 159 -106 741 -464 754 -464 14 0 79 68
211 220 36 41 90 101 120 133 l55 59 3 339 3 339 27 6 c30 7 195 67 256 93
179 74 252 111 263 133 10 18 12 223 10 943 l-2 920 -55 94 c-30 51 -97 145
-147 208 -103 129 -102 124 -31 187 23 21 77 71 119 112 74 71 78 74 125 74
136 -1 308 -70 404 -162 68 -66 109 -124 148 -209 39 -86 54 -160 56 -293 l3
-111 59 1 c156 2 333 167 408 379 48 137 59 201 53 310 -12 184 -78 329 -214
463 -133 132 -280 192 -472 192 -153 0 -307 -43 -447 -125 -77 -45 -219 -171
-325 -288 -108 -119 -136 -147 -149 -147 -5 0 -22 24 -38 53 -16 29 -71 103
-121 165 -50 62 -91 116 -91 121 0 5 39 44 88 87 173 156 328 300 388 361 l60
63 460 0 c354 0 464 3 477 13 15 10 18 34 20 177 l2 165 -537 3 -537 2 -73
-63 c-40 -35 -184 -177 -319 -316 -135 -138 -251 -251 -257 -251 -15 0 -14
-35 -13 400 0 206 -2 488 -5 626 l-6 251 -137 138 c-75 77 -165 166 -200 198
l-63 60 -154 -5 c-104 -3 -158 -9 -168 -18 -13 -10 -16 -38 -16 -146 0 -84 4
-135 11 -139 6 -4 61 -7 122 -7 l112 1 63 -66 62 -66 -2 -621 -3 -621 -257 -3
-258 -2 0 517 0 517 -185 185 -185 184 0 512 c0 572 7 524 -70 517z m56 -37
c1 -11 2 -241 3 -510 l1 -491 181 -184 182 -185 1 -520 1 -520 265 -3 c240 -2
266 -1 278 15 9 13 12 156 12 636 l0 619 -69 69 -69 69 -116 0 -116 0 0 135
c0 159 -20 143 183 147 l137 4 190 -187 190 -186 0 -639 c0 -654 1 -664 37
-664 7 0 154 141 325 314 285 285 317 314 353 319 51 9 982 9 1013 1 22 -6 22
-9 22 -155 0 -148 0 -149 -25 -165 -23 -15 -65 -16 -471 -9 l-445 7 -132 -129
c-130 -128 -294 -278 -392 -359 l-50 -42 50 -53 c58 -61 185 -231 206 -274 8
-16 19 -30 24 -32 6 -2 70 59 143 136 237 250 379 349 577 402 119 32 295 32
390 0 132 -43 194 -81 285 -171 173 -172 236 -388 184 -637 -53 -260 -229
-463 -421 -489 l-53 -7 0 97 c0 167 -32 280 -116 408 -113 170 -306 277 -501
278 -72 0 -74 -1 -230 -154 -117 -114 -116 -97 -18 -216 82 -100 146 -192 184
-266 l31 -61 5 -909 c4 -718 2 -914 -7 -932 -8 -15 -45 -38 -103 -64 -138 -61
-352 -146 -388 -153 -59 -13 -57 -1 -58 -349 0 -176 -3 -328 -7 -338 -4 -9
-23 -34 -42 -55 -20 -21 -90 -99 -157 -173 -66 -74 -132 -146 -147 -159 -36
-34 12 -59 -536 282 -187 116 -443 287 -452 300 -4 6 -4 15 -2 19 18 29 497
324 648 400 107 53 96 -27 96 704 0 385 4 653 10 668 8 22 29 31 157 71 81 25
204 64 273 86 l125 41 110 126 c61 69 151 173 201 232 50 58 115 125 145 149
30 23 54 48 54 54 0 9 -176 12 -695 12 l-695 0 -5 -917 c-4 -798 -7 -919 -20
-932 -12 -12 -106 -16 -521 -27 -278 -7 -513 -10 -521 -7 -13 5 -16 124 -22
944 -4 516 -9 941 -12 946 -8 12 -1374 10 -1374 -2 0 -6 37 -50 83 -98 111
-117 279 -310 352 -404 56 -73 65 -80 135 -107 41 -16 149 -52 240 -81 241
-76 257 -84 265 -128 3 -21 3 -314 1 -653 -5 -573 -4 -618 12 -631 9 -8 60
-38 112 -65 142 -76 516 -307 589 -365 23 -17 32 -31 28 -42 -7 -17 -218 -159
-510 -342 -87 -54 -212 -134 -279 -176 -124 -79 -142 -84 -165 -44 -4 8 -78
87 -163 176 -85 89 -159 170 -165 179 -6 9 -12 144 -15 319 l-5 303 -210 108
c-234 120 -346 179 -357 190 -4 4 -8 426 -8 938 -1 858 0 935 16 965 17 32
167 223 239 303 57 64 58 68 26 109 -42 52 -194 192 -230 210 -70 37 -259 7
-380 -61 -37 -21 -97 -68 -136 -108 -118 -119 -172 -247 -185 -435 -4 -63 -6
-117 -3 -120 2 -3 71 -9 151 -15 l147 -10 7 -118 c4 -65 4 -141 0 -170 l-7
-52 -528 -3 -527 -2 -78 -57 c-42 -31 -120 -91 -172 -133 -147 -118 -129 -110
-261 -110 l-116 0 -36 -72 c-59 -119 -180 -225 -291 -254 -139 -37 -311 4
-416 99 -115 103 -175 271 -150 414 19 109 70 195 157 264 91 73 168 99 288
99 132 0 238 -45 345 -145 70 -66 90 -77 126 -66 43 13 422 180 559 247 l120
59 240 3 c132 2 244 7 248 11 5 5 -22 40 -60 78 -165 166 -249 431 -209 658
24 138 88 258 191 361 68 68 97 89 176 127 120 57 179 71 309 70 127 -1 239
-30 375 -98 119 -58 201 -122 366 -282 75 -73 141 -133 147 -133 15 0 21 24
15 66 -4 36 0 45 60 119 36 44 83 98 106 120 23 21 41 47 41 56 0 9 -78 90
-172 180 -95 90 -204 193 -241 229 l-69 65 -478 3 c-381 3 -481 6 -490 17 -7
8 -10 65 -8 161 l3 149 499 3 c339 1 511 -1 539 -9 34 -9 76 -46 236 -203 388
-380 459 -446 475 -440 14 5 16 49 16 373 l0 366 -85 78 c-47 42 -89 77 -94
77 -4 0 -20 -11 -35 -25 -92 -85 -179 -120 -301 -120 -82 0 -97 3 -157 33 -82
40 -159 122 -189 202 -33 85 -37 201 -9 284 29 89 105 173 198 218 63 31 73
33 177 33 106 0 112 -1 171 -33 34 -18 77 -50 97 -70 48 -49 94 -140 102 -199
12 -94 11 -93 123 -93 l98 0 109 -111 110 -112 0 -451 0 -451 254 -3 c197 -2
256 1 263 10 13 22 9 920 -5 945 -7 12 -64 70 -127 129 -63 59 -145 135 -182
170 l-68 63 -2 208 -3 208 -101 8 -102 9 -10 51 c-15 69 -80 388 -93 455 l-11
54 -96 -7 c-244 -16 118 69 448 105 58 7 130 15 160 20 30 4 78 7 105 7 42 -2
50 -5 51 -22z"/>
<path d="M560 5831 c-73 -15 -122 -64 -139 -141 -17 -77 5 -139 67 -188 95
-75 243 -39 293 73 67 146 -56 288 -221 256z m139 -30 c66 -33 98 -110 80
-192 -13 -56 -36 -87 -83 -111 -62 -32 -131 -30 -189 7 -56 36 -79 79 -79 145
1 57 20 98 62 134 29 24 40 28 95 39 30 6 76 -3 114 -22z"/>
<path d="M5357 9943 c-4 -3 -7 -125 -7 -270 l0 -263 23 -8 c12 -5 60 -9 107
-10 347 -8 875 -133 1215 -287 33 -15 98 -43 145 -62 l85 -34 22 27 c12 15 29
46 39 68 9 23 23 56 31 74 8 18 29 70 48 115 57 141 72 172 89 186 9 7 16 17
16 22 0 23 -348 167 -565 234 -66 20 -154 47 -195 60 -107 33 -375 91 -510
110 -63 9 -205 22 -315 30 -236 17 -220 17 -228 8z m208 -18 c395 -22 846
-124 1275 -287 171 -65 300 -124 300 -137 0 -5 -11 -28 -24 -52 -14 -24 -39
-80 -56 -124 -88 -226 -123 -295 -147 -295 -8 0 -87 32 -176 71 -211 92 -290
121 -461 168 -293 80 -476 113 -751 134 l-160 12 -3 250 c-1 137 0 256 3 263
3 9 17 12 47 8 24 -3 93 -8 153 -11z"/>
<path d="M3545 9710 c-92 -29 -332 -118 -395 -146 -205 -91 -510 -244 -613
-307 -89 -55 -394 -256 -444 -293 -159 -119 -297 -237 -453 -389 -177 -172
-222 -222 -429 -470 -154 -186 -407 -592 -542 -870 -146 -302 -280 -651 -265
-690 3 -9 18 -15 36 -15 17 0 61 -4 98 -10 79 -11 315 -37 423 -46 l77 -6 42
108 c72 187 220 504 298 639 15 28 46 81 67 120 149 272 439 641 712 905 336
326 617 536 948 710 55 29 105 56 110 60 6 4 51 24 100 45 50 21 110 46 135
57 38 17 309 118 317 118 1 0 7 9 13 19 7 13 7 28 0 45 -5 15 -24 113 -41 219
-17 105 -35 200 -40 210 -13 24 -48 21 -154 -13z m150 -12 c3 -13 19 -106 36
-208 18 -102 34 -197 36 -211 4 -23 -1 -28 -59 -52 -34 -15 -89 -36 -121 -47
-32 -11 -95 -35 -140 -54 -45 -18 -113 -47 -152 -62 -134 -55 -427 -224 -585
-337 -538 -384 -1044 -943 -1315 -1451 -24 -45 -67 -124 -95 -176 -58 -108
-140 -287 -200 -439 -62 -158 -77 -184 -103 -177 -11 3 -142 17 -291 32 -149
15 -276 31 -283 36 -29 22 162 498 320 798 382 725 895 1299 1555 1739 361
241 856 482 1227 598 44 13 85 26 90 28 6 2 25 4 42 4 26 1 34 -4 38 -21z"/>
<path d="M7753 8998 c-43 -57 -95 -128 -115 -158 -21 -30 -54 -74 -74 -98
l-36 -44 -27 25 c-36 33 -103 77 -118 77 -27 0 -11 -21 51 -67 36 -27 66 -55
69 -65 3 -9 33 -38 68 -65 307 -236 594 -521 828 -823 179 -231 408 -617 538
-905 92 -203 111 -249 158 -380 153 -424 227 -792 245 -1215 l8 -195 -3 200
c-4 199 -23 403 -51 545 -103 516 -313 1053 -593 1520 -207 344 -367 553 -633
829 -141 147 -243 239 -404 365 -54 44 -111 90 -126 104 l-27 25 25 20 c14 11
52 56 84 101 33 44 95 129 137 188 43 59 81 107 85 108 4 0 55 -36 113 -80
332 -252 634 -547 906 -885 73 -91 249 -331 249 -341 0 -3 13 -24 29 -47 165
-241 378 -666 494 -982 249 -680 332 -1191 307 -1880 -19 -505 -111 -957 -302
-1490 -178 -498 -387 -895 -673 -1280 -160 -216 -240 -305 -273 -305 -22 0
-66 40 -232 210 l-206 210 -401 0 -401 0 -73 88 c-41 48 -93 107 -115 132 -23
25 -67 74 -99 110 -64 73 -81 82 -142 78 l-42 -3 -7 -674 c-6 -568 -5 -675 7
-682 8 -5 44 -9 82 -9 63 0 68 -2 77 -26 11 -29 13 -287 3 -477 l-6 -128 -46
-23 c-42 -21 -306 -117 -376 -136 -136 -38 -138 -38 -165 5 -26 42 -28 72 -35
477 l-4 307 32 3 32 3 7 85 c3 47 7 420 7 830 1 417 5 751 10 759 13 21 636 9
678 -13 20 -11 353 -353 357 -368 1 -1 154 -5 341 -8 l340 -5 13 -45 c7 -25
16 -56 20 -70 15 -50 44 -37 113 50 110 140 228 310 306 440 82 138 258 489
296 590 14 36 39 99 56 141 16 42 53 154 80 250 89 310 138 634 145 959 l5
205 -9 -199 c-20 -447 -102 -861 -245 -1235 -100 -263 -251 -566 -410 -821
-101 -161 -289 -402 -309 -394 -7 3 -19 30 -26 60 -23 96 6 88 -374 94 l-335
5 -158 165 c-86 90 -170 176 -187 190 l-30 25 -343 3 c-189 2 -344 2 -345 0
-1 -2 -5 -381 -8 -843 l-5 -840 -35 -5 c-34 -5 -35 -7 -34 -45 1 -22 2 -182 3
-355 2 -173 7 -331 12 -352 5 -21 24 -49 44 -66 31 -28 38 -30 67 -20 18 5 49
13 68 18 108 24 421 140 453 168 15 14 17 42 17 328 0 218 -3 315 -11 320 -6
3 -39 6 -73 5 -33 0 -67 3 -75 8 -12 8 -13 94 -8 563 4 304 7 604 7 666 l0
112 28 0 c54 0 136 -74 285 -258 21 -26 59 -71 84 -99 l45 -53 403 0 402 0
167 -174 c165 -172 259 -256 288 -256 31 0 206 212 365 442 325 468 579 1037
743 1663 44 169 93 436 131 715 21 150 18 762 -4 970 -18 168 -51 381 -66 435
-5 17 -21 82 -36 145 -35 148 -107 398 -138 481 -14 35 -53 136 -87 224 -91
235 -310 664 -439 861 -28 42 -51 78 -51 81 0 18 -311 420 -419 542 -105 119
-407 420 -461 459 -46 34 -174 145 -178 155 -2 4 -9 7 -15 7 -7 1 -50 32 -97
70 -46 39 -92 70 -102 70 -10 0 -49 -41 -95 -102z"/>
<path d="M8623 5736 c-29 -7 -70 -24 -90 -38 -50 -33 -117 -103 -140 -145 -9
-18 -24 -33 -33 -33 -13 0 -120 72 -268 180 l-42 31 -281 -3 c-264 -3 -281 -4
-295 -22 -19 -27 -20 -318 -1 -334 8 -7 122 -12 322 -14 297 -3 312 -4 350
-25 22 -12 67 -26 100 -30 l60 -8 55 -83 c66 -99 97 -130 173 -176 119 -71
256 -71 383 0 73 40 112 82 148 159 73 154 44 318 -78 440 -98 98 -230 135
-363 101z m247 -31 c196 -99 272 -308 181 -501 -37 -80 -88 -131 -168 -170
-52 -26 -68 -29 -158 -29 -95 0 -104 2 -168 35 -78 40 -115 76 -188 185 -29
44 -57 83 -63 86 -5 4 -39 10 -75 14 -36 4 -82 15 -101 25 -31 17 -69 19 -337
23 -166 3 -307 8 -312 12 -16 9 -15 287 1 303 9 9 89 12 298 12 l285 0 92 -62
c50 -35 119 -83 153 -106 34 -24 63 -42 64 -40 2 1 11 19 21 38 26 51 91 125
136 155 93 61 241 70 339 20z"/>
<path d="M1698 5324 c-23 -20 -104 -95 -178 -168 -74 -72 -167 -162 -206 -199
l-72 -68 -236 -2 c-198 -2 -238 -4 -246 -17 -5 -8 -10 -85 -10 -170 0 -125 3
-160 16 -178 18 -26 56 -28 94 -7 20 11 80 14 296 15 l271 0 39 49 c48 60 177
204 298 332 l91 96 435 -4 c389 -5 437 -3 449 11 16 20 26 282 11 320 l-10 26
-499 0 -499 0 -44 -36z m1037 -136 c0 -86 -3 -159 -7 -163 -3 -4 -201 -6 -440
-6 -238 1 -438 -2 -443 -6 -19 -14 -325 -346 -380 -413 -21 -25 -42 -48 -49
-52 -6 -4 -138 -8 -294 -8 -201 0 -288 -3 -301 -12 -15 -9 -23 -9 -35 1 -13
11 -16 39 -16 161 0 82 3 156 6 165 6 14 33 16 235 14 l229 -1 223 214 c122
117 237 226 255 241 l34 27 491 -2 492 -3 0 -157z"/>
<path d="M7435 4838 c-3 -8 -4 -90 -3 -183 l3 -170 345 -6 345 -5 87 -55 c126
-78 290 -182 387 -245 47 -30 94 -54 106 -54 14 0 52 35 116 108 53 59 102
118 109 131 46 86 124 451 101 474 -19 19 -1589 24 -1596 5z m1585 -49 c0 -54
-35 -229 -67 -332 -25 -84 -31 -93 -131 -208 -58 -65 -110 -119 -116 -119 -12
0 -46 21 -253 154 -60 38 -155 99 -213 135 l-105 66 -345 5 c-190 3 -346 7
-347 8 -7 5 -2 320 4 326 4 4 360 6 790 5 l783 -2 0 -38z"/>
<path d="M2563 4742 c-41 -4 -185 -139 -318 -297 l-90 -107 -977 5 c-928 4
-978 3 -978 -13 0 -19 70 -221 112 -325 l24 -60 926 -3 c722 -2 934 1 964 10
31 11 52 32 118 124 45 61 103 136 129 167 l49 57 128 0 c105 0 132 3 145 16
14 14 15 42 10 217 -2 110 -7 202 -9 204 -5 5 -189 9 -233 5z m222 -215 c0
-165 -3 -199 -15 -208 -8 -5 -67 -9 -135 -7 l-119 2 -62 -72 c-34 -39 -92
-115 -129 -167 -37 -53 -75 -99 -84 -104 -9 -5 -438 -12 -953 -16 l-938 -7
-20 48 c-39 90 -110 294 -110 315 l0 20 966 -3 966 -3 67 75 c36 41 122 133
191 203 l126 128 125 -3 124 -3 0 -198z"/>
<path d="M7968 3971 c-121 -24 -267 -142 -326 -264 l-33 -68 -383 2 c-210 1
-388 -1 -394 -5 -17 -10 -17 -317 0 -334 9 -9 112 -12 401 -12 l389 0 77 -78
c139 -143 282 -187 482 -148 146 28 282 151 337 306 118 330 -193 670 -550
601z m207 -16 c203 -53 354 -239 355 -435 0 -126 -53 -243 -152 -335 -73 -68
-143 -102 -241 -117 -98 -15 -188 -1 -284 42 -52 24 -85 49 -146 113 l-80 82
-383 -4 c-295 -2 -388 0 -399 9 -12 10 -15 40 -15 150 0 76 2 144 5 152 4 11
78 12 395 10 368 -3 391 -2 396 15 75 232 324 376 549 318z"/>
<path d="M7985 3689 c-33 -19 -86 -72 -101 -101 -20 -39 -18 -122 6 -167 37
-73 104 -106 201 -99 71 5 122 40 157 108 44 86 20 181 -59 235 -35 25 -53 30
-113 33 -41 1 -79 -2 -91 -9z m195 -33 c45 -30 79 -90 80 -142 0 -45 -44 -125
-86 -154 -30 -20 -48 -24 -105 -24 -57 1 -76 6 -109 28 -84 55 -103 162 -44
247 57 83 176 103 264 45z"/>
<path d="M2249 3642 c-86 -3 -86 -3 -103 -35 -9 -18 -34 -105 -55 -194 -22
-89 -45 -175 -53 -190 -9 -20 -35 -39 -85 -63 -87 -42 -153 -104 -190 -179
-25 -50 -28 -67 -28 -161 0 -89 3 -112 22 -150 38 -76 107 -146 181 -182 61
-30 74 -33 162 -33 86 0 101 3 160 31 169 82 257 260 214 433 -9 36 -30 92
-46 125 -17 33 -26 62 -21 67 5 5 74 38 153 75 l144 65 321 -1 c278 -1 324 1
335 15 9 11 11 56 7 186 -6 171 -9 184 -42 191 -17 3 -984 3 -1076 0z m1097
-46 c3 -13 6 -90 7 -170 2 -121 -1 -148 -13 -157 -9 -6 -137 -9 -330 -8 l-315
2 -110 -50 c-60 -28 -131 -59 -157 -69 -51 -20 -56 -28 -35 -59 26 -39 56
-122 66 -182 28 -179 -49 -330 -209 -407 -57 -27 -75 -31 -150 -31 -76 0 -92
4 -152 33 -77 37 -134 96 -175 181 -25 49 -28 67 -27 146 1 107 20 160 86 231
48 52 95 85 148 103 65 22 68 28 120 237 28 109 53 201 58 205 16 15 66 17
614 18 l568 1 6 -24z"/>
<path d="M755 3626 c-87 -27 -164 -95 -204 -181 -65 -140 -9 -325 124 -407 59
-37 103 -48 186 -49 133 -1 233 64 293 191 44 92 44 170 -2 262 -76 155 -243
232 -397 184z m202 -18 c79 -29 162 -112 191 -191 44 -117 23 -223 -64 -316
-73 -79 -141 -105 -252 -99 -87 5 -143 31 -208 96 -61 60 -79 112 -79 222 0
86 3 100 27 142 82 139 242 200 385 146z"/>
<path d="M5036 3175 c-16 -9 -70 -40 -120 -69 -309 -182 -375 -222 -506 -301
-80 -48 -156 -98 -169 -110 -24 -23 -24 -23 -5 -53 45 -71 165 -240 197 -277
l35 -40 598 -3 c330 -1 609 0 620 3 14 3 50 51 105 137 45 73 93 147 104 163
30 41 36 63 22 75 -7 6 -70 45 -142 87 -71 41 -168 99 -215 127 -158 97 -446
260 -475 269 -11 4 -33 0 -49 -8z m111 -37 c96 -52 315 -179 543 -316 244
-147 235 -136 171 -230 -21 -31 -69 -103 -106 -160 l-66 -104 -602 4 c-331 2
-609 7 -617 11 -18 9 -220 291 -227 316 -7 29 -30 14 692 444 61 36 120 66
132 66 12 1 48 -13 80 -31z"/>
<path d="M2845 2982 c-3 -8 -5 -188 -6 -400 l0 -387 -164 -170 -164 -170 -37
20 c-31 16 -57 20 -143 20 -96 0 -111 -3 -164 -28 -72 -36 -143 -107 -182
-183 -27 -54 -30 -68 -30 -154 1 -85 4 -101 30 -153 78 -156 248 -248 405
-219 131 24 231 96 277 200 26 59 33 126 14 145 -21 21 -11 63 26 108 20 24
74 82 118 129 275 287 342 363 349 396 3 16 10 58 16 94 6 36 19 106 30 155
10 50 28 140 39 200 71 384 71 379 44 390 -16 7 -78 10 -365 18 -66 1 -89 -1
-93 -11z m448 -19 c18 -11 3 -120 -74 -523 -28 -146 -57 -283 -65 -305 -10
-27 -62 -91 -165 -200 -313 -334 -339 -364 -339 -396 0 -16 7 -41 16 -54 33
-50 -18 -171 -97 -234 -79 -63 -146 -84 -254 -79 -76 3 -98 8 -143 33 -115 63
-181 149 -202 264 -35 196 115 398 314 418 63 6 168 -11 203 -34 23 -15 26
-12 185 152 90 92 167 174 171 182 5 7 8 180 7 383 0 258 3 377 11 391 11 21
14 21 217 14 114 -4 210 -9 215 -12z"/>
<path d="M1359 2722 c-105 -54 -244 -133 -364 -208 -65 -41 -80 -55 -79 -75 0
-24 117 -195 339 -494 113 -152 137 -180 153 -173 19 7 225 236 262 291 22 33
45 77 50 98 16 58 13 167 -4 218 -16 44 -242 391 -255 391 -4 0 -50 -22 -102
-48z m219 -139 c60 -93 116 -186 123 -208 7 -22 13 -76 13 -121 0 -113 -26
-162 -172 -322 -63 -70 -121 -131 -128 -135 -21 -12 -45 10 -109 101 -33 47
-75 104 -92 126 -28 35 -139 190 -248 346 -53 76 -53 75 23 124 60 39 106 66
292 169 30 17 78 43 105 58 28 16 57 29 66 29 10 0 58 -63 127 -167z"/>
<path d="M5773 2132 c-10 -6 -13 -135 -13 -567 0 -307 -3 -568 -6 -580 -5 -18
-13 -21 -77 -21 -198 0 -360 -174 -344 -368 11 -131 93 -243 226 -309 59 -29
74 -32 156 -32 76 1 99 5 147 28 87 41 190 155 205 227 4 21 14 35 30 41 13 5
28 20 33 35 7 16 9 303 8 787 l-3 762 -175 2 c-96 2 -181 -1 -187 -5z m341
-15 c17 -12 18 -53 14 -763 -2 -412 -8 -756 -12 -766 -4 -9 -16 -18 -27 -21
-10 -3 -21 -13 -25 -24 -15 -49 -46 -103 -86 -153 -51 -62 -123 -104 -213
-122 -134 -27 -301 61 -383 200 -24 42 -27 56 -27 142 0 111 12 152 66 220 29
37 57 58 112 85 66 31 83 35 154 35 75 0 81 2 87 23 3 12 6 270 6 573 0 440 3
554 13 562 12 10 66 15 238 20 41 1 72 -3 83 -11z"/>
<path d="M3919 1874 c-109 -33 -194 -107 -242 -211 -17 -38 -22 -66 -22 -138
0 -82 3 -97 33 -157 55 -113 162 -191 284 -208 168 -24 319 62 394 226 21 47
27 75 28 135 1 67 -3 83 -32 141 -87 171 -279 263 -443 212z m246 -38 c79 -38
139 -96 182 -178 24 -46 28 -64 28 -138 0 -76 -4 -92 -33 -152 -134 -275 -545
-256 -653 31 -31 83 -24 205 16 281 37 67 90 122 147 151 63 32 85 37 168 38
66 1 84 -3 145 -33z"/>
<path d="M7769 1836 c-106 -28 -213 -124 -244 -217 -22 -64 -16 -156 13 -222
25 -55 113 -152 156 -172 66 -29 111 -37 175 -33 154 11 261 109 301 275 34
146 -70 306 -235 363 -66 23 -100 24 -166 6z m206 -36 c57 -29 135 -104 162
-158 13 -27 18 -60 18 -122 0 -74 -4 -92 -29 -140 -62 -120 -147 -174 -276
-174 -92 0 -167 31 -229 94 -168 173 -104 431 128 517 56 21 166 12 226 -17z"/>
<path d="M4954 1650 c-67 -33 -136 -100 -162 -158 -10 -23 -16 -67 -16 -117
-1 -68 3 -88 26 -130 30 -59 97 -124 160 -156 63 -33 193 -33 261 0 106 52
187 179 187 294 0 103 -85 222 -195 273 -76 36 -180 33 -261 -6z m264 -11
c112 -55 172 -148 172 -264 0 -121 -58 -213 -167 -267 -128 -63 -255 -37 -356
72 -58 62 -77 109 -77 189 0 95 18 140 79 202 102 102 231 127 349 68z"/>
<path d="M3043 1228 c-4 -7 -6 -38 -5 -69 4 -73 -21 -192 -49 -232 -52 -74
-145 -141 -199 -141 -91 -2 -63 -28 145 -133 222 -112 461 -205 653 -253 134
-34 126 -51 130 278 l4 269 -63 23 c-82 30 -193 81 -402 186 -169 84 -199 95
-214 72z m219 -90 c207 -105 321 -158 390 -183 42 -15 48 -22 54 -53 10 -51
-13 -483 -25 -495 -41 -41 -637 180 -868 323 -37 22 -43 40 -14 40 42 0 151
76 189 133 43 63 54 103 57 209 3 96 8 118 25 118 4 0 91 -42 192 -92z"/>
<path d="M4525 941 c-95 -25 -193 -110 -240 -206 -25 -51 -30 -72 -30 -140 0
-71 4 -88 32 -146 39 -79 102 -140 181 -177 49 -23 70 -27 147 -27 78 0 97 4
147 28 74 36 139 101 175 175 25 50 28 68 27 147 0 110 -23 165 -99 240 -72
72 -148 107 -238 111 -40 2 -85 -1 -102 -5z m223 -38 c31 -15 83 -53 114 -84
45 -44 60 -68 74 -115 53 -173 -15 -335 -172 -415 -61 -30 -76 -34 -148 -34
-104 0 -184 34 -251 106 -91 97 -120 225 -78 342 27 76 98 155 172 194 58 30
72 33 148 33 71 0 93 -4 141 -27z"/>
</g>
</svg>
