<?xml version="1.0" standalone="no"?>
<!DOCTYPE svg PUBLIC "-//W3C//DTD SVG 20010904//EN"
 "http://www.w3.org/TR/2001/REC-SVG-20010904/DTD/svg10.dtd">
<svg version="1.0" xmlns="http://www.w3.org/2000/svg"
 width="1024.000000pt" height="1024.000000pt" viewBox="0 0 1024.000000 1024.000000"
 preserveAspectRatio="xMidYMid meet">

<g transform="translate(0.000000,1024.000000) scale(0.100000,-0.100000)"
fill="#000000" stroke="none">
<path d="M4810 9942 c-270 -22 -642 -77 -762 -113 -54 -15 -68 -24 -68 -39 0
-19 5 -19 104 -13 l104 6 15 -69 c9 -38 32 -154 52 -259 20 -104 43 -200 51
-212 13 -21 22 -23 104 -23 l90 0 1 -197 c0 -109 3 -205 7 -214 7 -15 45 -52
280 -268 l102 -94 0 -469 0 -468 -245 0 -245 0 0 443 0 442 -113 118 -112 117
-101 2 -102 1 -11 73 c-36 219 -251 368 -466 324 -175 -35 -302 -171 -326
-349 -21 -152 47 -302 176 -387 89 -59 187 -76 310 -53 72 13 99 26 170 84 30
25 62 45 71 45 9 0 38 -21 64 -47 26 -27 60 -58 74 -71 l27 -23 -3 -354 c-2
-194 -6 -357 -11 -361 -4 -4 -60 44 -125 107 -64 63 -214 209 -333 325 l-216
211 -84 6 c-46 3 -289 2 -539 -1 l-455 -7 -7 -147 c-3 -82 -3 -160 1 -175 l7
-28 488 -3 488 -2 131 -122 c73 -67 181 -170 240 -229 l109 -107 -99 -112
c-108 -123 -127 -152 -118 -179 3 -10 3 -26 -1 -35 -5 -13 -39 16 -154 128
-198 193 -303 260 -520 333 -76 25 -99 28 -215 28 -152 0 -223 -18 -347 -89
-137 -78 -229 -186 -304 -357 l-38 -84 0 -150 c0 -138 2 -157 27 -231 37 -111
111 -242 180 -319 31 -35 57 -66 57 -69 0 -3 -103 -6 -229 -6 l-230 0 -133
-64 c-245 -119 -559 -248 -586 -241 -14 3 -55 33 -92 65 -226 202 -510 196
-702 -15 -37 -41 -85 -140 -99 -205 -47 -218 96 -454 321 -530 99 -33 286 -21
339 22 9 8 29 20 44 28 49 24 148 139 179 207 l28 63 119 0 c135 0 115 -9 301
139 52 42 113 90 135 106 22 16 46 35 54 43 11 10 113 13 543 11 291 0 532 2
536 6 11 11 14 318 4 346 -10 25 -12 26 -143 32 -73 4 -137 11 -143 17 -17 17
-11 177 9 245 50 173 173 328 317 397 79 38 197 68 265 68 21 0 56 -9 78 -19
51 -23 248 -213 243 -234 -1 -8 -29 -46 -60 -84 -139 -164 -191 -231 -216
-273 l-27 -45 -3 -921 c-1 -536 1 -932 7 -945 9 -24 52 -48 451 -251 l125 -64
3 -304 2 -303 42 -46 c23 -25 78 -84 122 -131 45 -47 111 -118 149 -158 37
-40 74 -72 82 -72 8 0 59 29 112 64 105 68 303 193 380 240 168 101 443 293
443 308 0 23 -65 69 -300 214 -222 137 -334 202 -402 235 l-48 23 0 658 0 658
-38 19 c-21 11 -119 45 -217 76 -247 78 -333 112 -340 136 -4 10 -10 19 -14
19 -4 0 -31 29 -60 65 -67 84 -250 291 -329 374 -34 35 -62 67 -62 71 0 4 17
10 38 13 53 8 1286 -3 1294 -11 4 -4 8 -415 9 -912 0 -498 3 -920 6 -939 l6
-34 496 8 c273 4 516 10 541 14 36 5 45 11 51 31 4 14 7 430 8 926 l1 900 675
1 c371 0 675 -2 675 -3 0 -2 -29 -32 -63 -66 -35 -35 -102 -108 -148 -163 -46
-55 -127 -148 -179 -207 l-95 -108 -145 -46 c-80 -25 -203 -64 -275 -87 -71
-22 -133 -46 -137 -51 -15 -22 -18 -152 -21 -736 l-2 -605 -130 -72 c-71 -40
-137 -76 -145 -80 -8 -4 -62 -36 -120 -71 -199 -122 -350 -226 -350 -242 0 -5
33 -31 73 -58 39 -27 113 -75 162 -108 159 -106 741 -464 754 -464 14 0 79 68
211 220 36 41 90 101 120 133 l55 59 3 339 3 339 27 6 c30 7 195 67 256 93
179 74 252 111 263 133 10 18 12 223 10 943 l-2 920 -55 94 c-30 51 -97 145
-147 208 -103 129 -102 124 -31 187 23 21 77 71 119 112 74 71 78 74 125 74
136 -1 308 -70 404 -162 68 -66 109 -124 148 -209 39 -86 54 -160 56 -293 l3
-111 59 1 c156 2 333 167 408 379 48 137 59 201 53 310 -12 184 -78 329 -214
463 -133 132 -280 192 -472 192 -153 0 -307 -43 -447 -125 -77 -45 -219 -171
-325 -288 -108 -119 -136 -147 -149 -147 -5 0 -22 24 -38 53 -16 29 -71 103
-121 165 -50 62 -91 116 -91 121 0 5 39 44 88 87 173 156 328 300 388 361 l60
63 460 0 c354 0 464 3 477 13 15 10 18 34 20 177 l2 165 -537 3 -537 2 -73
-63 c-40 -35 -184 -177 -319 -316 -135 -138 -251 -251 -257 -251 -15 0 -14
-35 -13 400 0 206 -2 488 -5 626 l-6 251 -137 138 c-75 77 -165 166 -200 198
l-63 60 -154 -5 c-104 -3 -158 -9 -168 -18 -13 -10 -16 -38 -16 -146 0 -84 4
-135 11 -139 6 -4 61 -7 122 -7 l112 1 63 -66 62 -66 -2 -621 -3 -621 -257 -3
-258 -2 0 517 0 517 -185 185 -185 184 0 512 c0 572 7 524 -70 517z m-4135
-4129 c65 -18 106 -78 107 -157 1 -109 -67 -180 -172 -180 -71 0 -140 38 -165
91 -22 45 -22 120 -2 160 19 37 70 81 100 88 12 2 31 6 42 8 20 4 50 1 90 -10z"/>
<path d="M5357 9943 c-4 -3 -7 -125 -7 -270 l0 -263 23 -8 c12 -5 60 -9 107
-10 347 -8 875 -133 1215 -287 33 -15 98 -43 145 -62 l85 -34 22 27 c12 15 29
46 39 68 9 23 23 56 31 74 8 18 29 70 48 115 57 141 72 172 89 186 9 7 16 17
16 22 0 23 -348 167 -565 234 -66 20 -154 47 -195 60 -107 33 -375 91 -510
110 -63 9 -205 22 -315 30 -236 17 -220 17 -228 8z"/>
<path d="M3545 9710 c-92 -29 -332 -118 -395 -146 -205 -91 -510 -244 -613
-307 -89 -55 -394 -256 -444 -293 -159 -119 -297 -237 -453 -389 -177 -172
-222 -222 -429 -470 -154 -186 -407 -592 -542 -870 -146 -302 -280 -651 -265
-690 3 -9 18 -15 36 -15 17 0 61 -4 98 -10 79 -11 315 -37 423 -46 l77 -6 42
108 c72 187 220 504 298 639 15 28 46 81 67 120 149 272 439 641 712 905 336
326 617 536 948 710 55 29 105 56 110 60 6 4 51 24 100 45 50 21 110 46 135
57 38 17 309 118 317 118 1 0 7 9 13 19 7 13 7 28 0 45 -5 15 -24 113 -41 219
-17 105 -35 200 -40 210 -13 24 -48 21 -154 -13z"/>
<path d="M7753 8998 c-43 -57 -95 -128 -115 -158 -21 -30 -54 -74 -74 -98
l-36 -44 -27 25 c-36 33 -103 77 -118 77 -27 0 -11 -21 51 -67 36 -27 66 -55
69 -65 3 -9 33 -38 68 -65 307 -236 594 -521 828 -823 179 -231 408 -617 538
-905 92 -203 111 -249 158 -380 155 -430 230 -803 243 -1220 21 -629 -57
-1156 -243 -1644 -100 -263 -251 -566 -410 -821 -101 -161 -289 -402 -309
-394 -7 3 -19 30 -26 60 -23 96 6 88 -374 94 l-335 5 -158 165 c-86 90 -170
176 -187 190 l-30 25 -343 3 c-189 2 -344 2 -345 0 -1 -2 -5 -381 -8 -843 l-5
-840 -35 -5 c-34 -5 -35 -7 -34 -45 1 -22 2 -182 3 -355 2 -173 7 -331 12
-352 5 -21 24 -49 44 -66 31 -28 38 -30 67 -20 18 5 49 13 68 18 108 24 421
140 453 168 15 14 17 42 17 328 0 218 -3 315 -11 320 -6 3 -39 6 -73 5 -33 0
-67 3 -75 8 -12 8 -13 94 -8 563 4 304 7 604 7 666 l0 112 28 0 c54 0 136 -74
285 -258 21 -26 59 -71 84 -99 l45 -53 403 0 402 0 167 -174 c165 -172 259
-256 288 -256 31 0 206 212 365 442 325 468 579 1037 743 1663 44 169 93 436
131 715 21 150 18 762 -4 970 -18 168 -51 381 -66 435 -5 17 -21 82 -36 145
-35 148 -107 398 -138 481 -14 35 -53 136 -87 224 -91 235 -310 664 -439 861
-28 42 -51 78 -51 81 0 18 -311 420 -419 542 -105 119 -407 420 -461 459 -46
34 -174 145 -178 155 -2 4 -9 7 -15 7 -7 1 -50 32 -97 70 -46 39 -92 70 -102
70 -10 0 -49 -41 -95 -102z"/>
<path d="M8623 5736 c-29 -7 -70 -24 -90 -38 -50 -33 -117 -103 -140 -145 -9
-18 -24 -33 -33 -33 -13 0 -120 72 -268 180 l-42 31 -281 -3 c-264 -3 -281 -4
-295 -22 -19 -27 -20 -318 -1 -334 8 -7 122 -12 322 -14 297 -3 312 -4 350
-25 22 -12 67 -26 100 -30 l60 -8 55 -83 c66 -99 97 -130 173 -176 119 -71
256 -71 383 0 73 40 112 82 148 159 73 154 44 318 -78 440 -98 98 -230 135
-363 101z"/>
<path d="M1698 5324 c-23 -20 -104 -95 -178 -168 -74 -72 -167 -162 -206 -199
l-72 -68 -236 -2 c-198 -2 -238 -4 -246 -17 -5 -8 -10 -85 -10 -170 0 -125 3
-160 16 -178 18 -26 56 -28 94 -7 20 11 80 14 296 15 l271 0 39 49 c48 60 177
204 298 332 l91 96 435 -4 c389 -5 437 -3 449 11 16 20 26 282 11 320 l-10 26
-499 0 -499 0 -44 -36z"/>
<path d="M7435 4838 c-3 -8 -4 -90 -3 -183 l3 -170 345 -6 345 -5 87 -55 c126
-78 290 -182 387 -245 47 -30 94 -54 106 -54 14 0 52 35 116 108 53 59 102
118 109 131 46 86 124 451 101 474 -19 19 -1589 24 -1596 5z"/>
<path d="M2563 4742 c-41 -4 -185 -139 -318 -297 l-90 -107 -977 5 c-928 4
-978 3 -978 -13 0 -19 70 -221 112 -325 l24 -60 926 -3 c722 -2 934 1 964 10
31 11 52 32 118 124 45 61 103 136 129 167 l49 57 128 0 c105 0 132 3 145 16
14 14 15 42 10 217 -2 110 -7 202 -9 204 -5 5 -189 9 -233 5z"/>
<path d="M7968 3971 c-121 -24 -267 -142 -326 -264 l-33 -68 -383 2 c-210 1
-388 -1 -394 -5 -17 -10 -17 -317 0 -334 9 -9 112 -12 401 -12 l389 0 77 -78
c139 -143 282 -187 482 -148 146 28 282 151 337 306 118 330 -193 670 -550
601z m212 -315 c45 -30 79 -90 80 -142 0 -45 -44 -125 -86 -154 -30 -20 -48
-24 -105 -24 -57 1 -76 6 -109 28 -84 55 -103 162 -44 247 57 83 176 103 264
45z"/>
<path d="M2249 3642 c-86 -3 -86 -3 -103 -35 -9 -18 -34 -105 -55 -194 -22
-89 -45 -175 -53 -190 -9 -20 -35 -39 -85 -63 -87 -42 -153 -104 -190 -179
-25 -50 -28 -67 -28 -161 0 -89 3 -112 22 -150 38 -76 107 -146 181 -182 61
-30 74 -33 162 -33 86 0 101 3 160 31 169 82 257 260 214 433 -9 36 -30 92
-46 125 -17 33 -26 62 -21 67 5 5 74 38 153 75 l144 65 321 -1 c278 -1 324 1
335 15 9 11 11 56 7 186 -6 171 -9 184 -42 191 -17 3 -984 3 -1076 0z"/>
<path d="M755 3626 c-87 -27 -164 -95 -204 -181 -65 -140 -9 -325 124 -407 59
-37 103 -48 186 -49 133 -1 233 64 293 191 44 92 44 170 -2 262 -76 155 -243
232 -397 184z"/>
<path d="M5036 3175 c-16 -9 -70 -40 -120 -69 -309 -182 -375 -222 -506 -301
-80 -48 -156 -98 -169 -110 -24 -23 -24 -23 -5 -53 45 -71 165 -240 197 -277
l35 -40 598 -3 c330 -1 609 0 620 3 14 3 50 51 105 137 45 73 93 147 104 163
30 41 36 63 22 75 -7 6 -70 45 -142 87 -71 41 -168 99 -215 127 -158 97 -446
260 -475 269 -11 4 -33 0 -49 -8z"/>
<path d="M2845 2982 c-3 -8 -5 -188 -6 -400 l0 -387 -164 -170 -164 -170 -37
20 c-31 16 -57 20 -143 20 -96 0 -111 -3 -164 -28 -72 -36 -143 -107 -182
-183 -27 -54 -30 -68 -30 -154 1 -85 4 -101 30 -153 78 -156 248 -248 405
-219 131 24 231 96 277 200 26 59 33 126 14 145 -21 21 -11 63 26 108 20 24
74 82 118 129 275 287 342 363 349 396 3 16 10 58 16 94 6 36 19 106 30 155
10 50 28 140 39 200 71 384 71 379 44 390 -16 7 -78 10 -365 18 -66 1 -89 -1
-93 -11z"/>
<path d="M1359 2722 c-105 -54 -244 -133 -364 -208 -65 -41 -80 -55 -79 -75 0
-24 117 -195 339 -494 113 -152 137 -180 153 -173 19 7 225 236 262 291 22 33
45 77 50 98 16 58 13 167 -4 218 -16 44 -242 391 -255 391 -4 0 -50 -22 -102
-48z"/>
<path d="M5773 2132 c-10 -6 -13 -135 -13 -567 0 -307 -3 -568 -6 -580 -5 -18
-13 -21 -77 -21 -198 0 -360 -174 -344 -368 11 -131 93 -243 226 -309 59 -29
74 -32 156 -32 76 1 99 5 147 28 87 41 190 155 205 227 4 21 14 35 30 41 13 5
28 20 33 35 7 16 9 303 8 787 l-3 762 -175 2 c-96 2 -181 -1 -187 -5z"/>
<path d="M3919 1874 c-109 -33 -194 -107 -242 -211 -17 -38 -22 -66 -22 -138
0 -82 3 -97 33 -157 55 -113 162 -191 284 -208 168 -24 319 62 394 226 21 47
27 75 28 135 1 67 -3 83 -32 141 -87 171 -279 263 -443 212z"/>
<path d="M7769 1836 c-106 -28 -213 -124 -244 -217 -22 -64 -16 -156 13 -222
25 -55 113 -152 156 -172 66 -29 111 -37 175 -33 154 11 261 109 301 275 34
146 -70 306 -235 363 -66 23 -100 24 -166 6z"/>
<path d="M4954 1650 c-67 -33 -136 -100 -162 -158 -10 -23 -16 -67 -16 -117
-1 -68 3 -88 26 -130 30 -59 97 -124 160 -156 63 -33 193 -33 261 0 106 52
187 179 187 294 0 103 -85 222 -195 273 -76 36 -180 33 -261 -6z"/>
<path d="M3043 1228 c-4 -7 -6 -38 -5 -69 4 -73 -21 -192 -49 -232 -52 -74
-145 -141 -199 -141 -91 -2 -63 -28 145 -133 222 -112 461 -205 653 -253 134
-34 126 -51 130 278 l4 269 -63 23 c-82 30 -193 81 -402 186 -169 84 -199 95
-214 72z"/>
<path d="M4525 941 c-95 -25 -193 -110 -240 -206 -25 -51 -30 -72 -30 -140 0
-71 4 -88 32 -146 39 -79 102 -140 181 -177 49 -23 70 -27 147 -27 78 0 97 4
147 28 74 36 139 101 175 175 25 50 28 68 27 147 0 110 -23 165 -99 240 -72
72 -148 107 -238 111 -40 2 -85 -1 -102 -5z"/>
</g>
</svg>
